<?xml version="1.0" standalone="no"?>
<!DOCTYPE svg PUBLIC "-//W3C//DTD SVG 20010904//EN"
 "http://www.w3.org/TR/2001/REC-SVG-20010904/DTD/svg10.dtd">
<svg version="1.0" xmlns="http://www.w3.org/2000/svg"
 width="2048.000000pt" height="2048.000000pt" viewBox="0 0 2048.000000 2048.000000"
 preserveAspectRatio="xMidYMid meet">

<g transform="translate(0.000000,2048.000000) scale(0.100000,-0.100000)"
fill="#000000" stroke="none">
<path d="M1 18738 c1 -1522 3 -1727 15 -1618 16 144 40 325 53 390 5 25 15 74
21 110 62 333 263 838 452 1131 506 784 1210 1315 2088 1574 215 63 470 110
785 144 48 5 -625 9 -1667 10 l-1748 1 1 -1742z"/>
<path d="M17105 20473 c57 -4 308 -38 375 -52 342 -68 725 -198 1020 -346 520
-260 1041 -720 1368 -1207 240 -356 429 -796 512 -1188 11 -52 26 -126 34
-163 8 -37 22 -127 30 -200 9 -73 20 -163 24 -202 6 -43 10 600 11 1648 l1
1717 -1712 -2 c-942 -1 -1690 -3 -1663 -5z"/>
<path d="M6441 7954 c0 -11 3 -14 6 -6 3 7 2 16 -1 19 -3 4 -6 -2 -5 -13z"/>
<path d="M5980 6996 c0 -9 5 -16 10 -16 6 0 10 4 10 9 0 6 -4 13 -10 16 -5 3
-10 -1 -10 -9z"/>
<path d="M5955 6938 c-4 -13 -6 -27 -6 -32 1 -5 -3 -12 -9 -16 -6 -4 -13 -24
-15 -46 -2 -21 -2 -31 1 -22 4 14 9 16 25 8 15 -8 17 -8 13 5 -4 8 -10 15 -15
15 -18 0 -8 32 11 37 17 4 18 8 8 20 -9 11 -9 16 3 23 10 7 11 12 3 20 -8 8
-13 5 -19 -12z"/>
<path d="M5887 6755 c-11 -23 -12 -33 -4 -29 15 6 37 53 28 59 -4 2 -15 -11
-24 -30z"/>
<path d="M5865 6700 c-3 -5 0 -10 9 -10 8 0 17 -6 19 -12 4 -8 6 -9 6 -2 1 18
-26 37 -34 24z"/>
<path d="M5846 6654 c-5 -14 -4 -15 9 -4 17 14 19 20 6 20 -5 0 -12 -7 -15
-16z"/>
<path d="M5825 6609 c-4 -6 -5 -12 -2 -15 2 -3 7 2 10 11 7 17 1 20 -8 4z"/>
<path d="M5790 6520 c-6 -11 -7 -20 -2 -20 6 0 12 9 15 20 3 11 3 20 1 20 -2
0 -8 -9 -14 -20z"/>
<path d="M5771 6474 c0 -11 3 -14 6 -6 3 7 2 16 -1 19 -3 4 -6 -2 -5 -13z"/>
<path d="M5757 6443 c-4 -3 -7 -11 -7 -17 0 -6 5 -5 12 2 6 6 9 14 7 17 -3 3
-9 2 -12 -2z"/>
<path d="M5736 6375 c-3 -8 -1 -15 4 -15 6 0 10 7 10 15 0 8 -2 15 -4 15 -2 0
-6 -7 -10 -15z"/>
<path d="M5727 6333 c-4 -3 -7 -13 -7 -22 1 -13 3 -13 11 2 11 19 8 33 -4 20z"/>
<path d="M5710 6276 c0 -8 4 -17 9 -21 6 -3 9 4 8 15 -1 23 -17 28 -17 6z"/>
<path d="M5721 6205 c1 -19 18 -51 18 -35 0 8 -4 22 -9 30 -5 8 -9 11 -9 5z"/>
<path d="M17151 3654 c0 -11 3 -14 6 -6 3 7 2 16 -1 19 -3 4 -6 -2 -5 -13z"/>
<path d="M17154 3360 c0 -151 2 -213 3 -137 2 75 2 199 0 275 -1 75 -3 13 -3
-138z"/>
<path d="M16746 3417 c3 -10 9 -15 12 -12 3 3 0 11 -7 18 -10 9 -11 8 -5 -6z"/>
<path d="M1 1673 l-1 -1673 1663 1 c1661 1 1662 1 1527 20 -173 23 -290 44
-415 74 -144 34 -391 115 -510 166 -11 4 -65 27 -120 49 -191 78 -441 220
-655 373 -381 272 -759 683 -994 1082 -260 441 -415 905 -476 1430 -17 148
-18 126 -19 -1522z"/>
<path d="M16810 3257 c0 -13 42 -118 46 -115 2 2 -6 29 -17 59 -20 52 -29 70
-29 56z"/>
<path d="M20470 3203 c-1 -81 -38 -286 -87 -483 -51 -201 -112 -379 -189 -548
-13 -29 -24 -55 -24 -58 0 -16 -104 -217 -168 -324 -163 -273 -312 -468 -525
-687 -204 -210 -432 -396 -647 -527 -52 -32 -106 -66 -120 -76 -14 -10 -86
-49 -160 -88 -282 -148 -660 -282 -950 -337 -47 -9 -101 -20 -120 -25 -19 -5
-75 -14 -125 -20 -49 -7 -94 -16 -99 -21 -6 -5 650 -9 1607 -9 l1617 0 0 1620
c0 891 -2 1620 -5 1620 -3 0 -5 -17 -5 -37z"/>
<path d="M16871 3084 c0 -11 3 -14 6 -6 3 7 2 16 -1 19 -3 4 -6 -2 -5 -13z"/>
<path d="M16885 3040 c3 -5 8 -10 11 -10 2 0 4 5 4 10 0 6 -5 10 -11 10 -5 0
-7 -4 -4 -10z"/>
<path d="M17350 2990 c0 -5 5 -10 11 -10 5 0 7 5 4 10 -3 6 -8 10 -11 10 -2 0
-4 -4 -4 -10z"/>
<path d="M15300 2935 c-11 -13 -7 -15 23 -15 20 0 38 4 41 9 4 5 -3 7 -14 4
-11 -3 -20 0 -20 6 0 16 -15 14 -30 -4z"/>
<path d="M15408 2933 c7 -3 16 -2 19 1 4 3 -2 6 -13 5 -11 0 -14 -3 -6 -6z"/>
<path d="M15488 2933 c7 -3 16 -2 19 1 4 3 -2 6 -13 5 -11 0 -14 -3 -6 -6z"/>
<path d="M16580 2930 c0 -12 54 -12 90 0 19 6 11 8 -32 9 -33 1 -58 -3 -58 -9z"/>
<path d="M16733 2933 c20 -2 54 -2 75 0 20 2 3 4 -38 4 -41 0 -58 -2 -37 -4z"/>
<path d="M17248 2933 c39 -2 105 -2 145 0 39 1 7 3 -73 3 -80 0 -112 -2 -72
-3z"/>
</g>
</svg>
